<?xml version="1.0" encoding="UTF-8"?>
<svg xmlns="http://www.w3.org/2000/svg" xmlns:xlink="http://www.w3.org/1999/xlink" width="126pt" height="21pt" viewBox="0 0 126 21" version="1.1">
<g id="surface1">
<path style=" stroke:none;fill-rule:nonzero;fill:rgb(0%,0%,0%);fill-opacity:1;" d="M 29.414062 10 C 29.414062 11.683594 27.324219 11.582031 27.324219 11.582031 L 25.230469 11.582031 L 25.230469 8.542969 L 27.324219 8.542969 C 29.476562 8.53125 29.414062 10 29.414062 10 M 25.230469 3.910156 L 26.824219 3.910156 C 28.480469 3.996094 28.417969 5.230469 28.417969 5.230469 C 28.417969 6.761719 26.589844 6.789062 26.589844 6.789062 L 25.230469 6.789062 Z M 29.03125 7.386719 C 29.03125 7.386719 30.460938 6.773438 30.449219 5.15625 C 30.449219 5.15625 30.667969 2.503906 27.152344 2.179688 L 23.25 2.179688 L 23.25 13.300781 L 27.722656 13.300781 C 27.722656 13.300781 31.457031 13.3125 31.457031 10.160156 C 31.457031 10.160156 31.546875 8.019531 29.03125 7.386719 M 18.9375 0 L 35.355469 0 L 35.355469 15.472656 L 18.9375 15.472656 Z M 10.480469 10 C 10.480469 11.683594 8.386719 11.582031 8.386719 11.582031 L 6.296875 11.582031 L 6.296875 8.542969 L 8.386719 8.542969 C 10.542969 8.53125 10.480469 10 10.480469 10 M 6.296875 3.910156 L 7.890625 3.910156 C 9.546875 3.996094 9.484375 5.230469 9.484375 5.230469 C 9.484375 6.761719 7.652344 6.789062 7.652344 6.789062 L 6.296875 6.789062 Z M 10.09375 7.386719 C 10.09375 7.386719 11.527344 6.773438 11.515625 5.15625 C 11.515625 5.15625 11.730469 2.503906 8.214844 2.179688 L 4.316406 2.179688 L 4.316406 13.300781 L 8.785156 13.300781 C 8.785156 13.300781 12.523438 13.3125 12.523438 10.160156 C 12.523438 10.160156 12.609375 8.019531 10.09375 7.386719 M 0 0 L 16.421875 0 L 16.421875 15.472656 L 0 15.472656 Z M 50.941406 2.976562 L 50.941406 5.03125 C 50.941406 5.03125 48.9375 3.796875 46.71875 3.773438 C 46.71875 3.773438 42.585938 3.691406 42.398438 7.738281 C 42.398438 7.738281 42.25 11.457031 46.671875 11.667969 C 46.671875 11.667969 48.527344 11.894531 51.042969 10.285156 L 51.042969 12.417969 C 51.042969 12.417969 47.667969 14.421875 43.757812 12.878906 C 43.757812 12.878906 40.46875 11.675781 40.34375 7.738281 C 40.34375 7.738281 40.207031 3.6875 44.589844 2.339844 C 44.589844 2.339844 45.761719 1.894531 47.867188 2.09375 C 47.867188 2.09375 49.125 2.21875 50.941406 2.976562 M 37.871094 15.472656 L 54.292969 15.472656 L 54.292969 0 L 37.871094 0 Z M 37.871094 15.472656 "/>
<path style=" stroke:none;fill-rule:nonzero;fill:rgb(96.078431%,28.627451%,59.215686%);fill-opacity:1;" d="M 106.855469 6.09375 L 107.675781 4.042969 L 103.753906 4.042969 L 101.410156 11.597656 L 101.351562 11.597656 L 98.835938 4.042969 L 94.558594 4.042969 L 95.144531 5.449219 L 95.085938 5.449219 C 94.089844 4.21875 92.453125 3.75 90.636719 3.75 C 88.941406 3.75 88.0625 3.984375 86.597656 4.394531 C 86.597656 4.394531 85.71875 7.089844 85.660156 7.203125 C 85.601562 7.320312 85.71875 7.496094 85.894531 7.378906 C 86.890625 6.914062 88.179688 6.386719 89.816406 6.386719 C 91.222656 6.386719 92.394531 6.796875 92.453125 8.375 C 91.925781 8.257812 91.222656 8.199219 90.636719 8.199219 C 88.941406 8.199219 86.246094 8.492188 85.191406 10.367188 L 85.132812 10.367188 L 85.132812 0.00390625 L 81.210938 0.00390625 L 81.210938 3.691406 L 81.152344 3.691406 C 80.390625 1.292969 78.226562 0.00390625 74.363281 0.00390625 L 69.445312 0.00390625 L 69.445312 4.160156 L 71.140625 7.378906 C 71.375 7.613281 71.433594 7.90625 71.140625 8.199219 L 69.445312 11.480469 L 69.445312 15.636719 L 73.542969 15.636719 L 73.542969 10.660156 L 75.121094 10.660156 C 78.285156 10.660156 80.390625 9.195312 81.035156 6.914062 L 81.09375 6.914062 L 81.09375 15.636719 L 85.015625 15.636719 L 85.015625 13.996094 L 85.074219 13.996094 C 85.777344 15.285156 87.300781 15.8125 88.941406 15.871094 C 90.929688 15.929688 92.042969 14.933594 92.453125 14.640625 C 92.570312 14.582031 92.628906 14.523438 92.628906 14.640625 C 92.628906 14.992188 92.6875 15.34375 92.6875 15.578125 L 96.316406 15.578125 C 96.140625 14.640625 96.082031 13.761719 96.082031 12.824219 L 96.082031 8.492188 C 96.082031 8.257812 96.082031 8.023438 96.023438 7.789062 L 96.082031 7.789062 L 99.242188 15.8125 C 99.242188 15.8125 98.71875 17.625 97.078125 17.625 C 96.375 17.625 95.964844 17.507812 95.378906 17.214844 C 95.261719 17.15625 95.203125 17.214844 95.144531 17.332031 L 94.207031 20.261719 C 94.792969 20.554688 96.199219 21.023438 97.722656 21.023438 C 101.058594 21.023438 102.523438 17.332031 103.519531 14.757812 L 105.917969 8.609375 L 105.976562 8.609375 C 105.917969 8.960938 105.917969 9.3125 105.917969 9.722656 C 105.917969 13.527344 108.789062 15.8125 112.59375 15.8125 C 113.761719 15.8125 114.992188 15.578125 115.988281 15.226562 C 115.988281 15.226562 116.808594 12.824219 116.984375 12.296875 C 117.042969 12.121094 116.867188 12.007812 116.75 12.121094 C 115.753906 12.648438 114.640625 13.175781 113.355469 13.175781 C 111.421875 13.175781 110.191406 12.53125 110.015625 10.953125 L 117.6875 10.953125 L 117.6875 15.578125 L 121.609375 15.578125 L 121.609375 10.660156 C 121.609375 8.140625 122.957031 7.03125 124.476562 7.03125 C 124.828125 7.03125 125.121094 7.148438 125.121094 7.148438 L 126 4.101562 C 126 3.984375 126 3.925781 125.882812 3.867188 C 125.53125 3.808594 125.121094 3.75 124.710938 3.75 C 123.015625 3.75 121.785156 4.6875 121.082031 6.152344 L 121.023438 6.152344 L 121.023438 4.042969 L 117.453125 4.042969 L 117.453125 7.847656 L 117.394531 7.847656 C 116.75 5.507812 115.109375 3.808594 111.949219 3.808594 C 109.78125 3.808594 107.96875 4.628906 106.855469 6.09375 Z M 74.59375 7.671875 L 73.542969 7.671875 L 73.542969 2.988281 L 74.59375 2.988281 C 76 2.988281 77.113281 3.75 77.113281 5.332031 C 77.113281 6.972656 76 7.671875 74.59375 7.671875 M 89.933594 13.234375 C 89 13.234375 88.296875 12.765625 88.296875 11.949219 C 88.296875 10.835938 89.347656 10.425781 90.695312 10.425781 C 91.28125 10.425781 91.867188 10.484375 92.335938 10.484375 C 92.394531 11.832031 91.457031 13.234375 89.933594 13.234375 M 109.722656 8.726562 C 109.78125 7.378906 110.484375 6.328125 111.890625 6.328125 C 113.472656 6.328125 114.054688 7.4375 114.054688 8.726562 Z M 109.722656 8.726562 "/>
<path style=" stroke:none;fill-rule:nonzero;fill:rgb(96.078431%,28.627451%,59.215686%);fill-opacity:1;" d="M 64.875 0.00390625 L 61.011719 0.00390625 L 61.011719 3.925781 L 64.875 3.925781 L 64.875 2.285156 L 71.140625 7.789062 L 64.875 13.351562 L 64.875 5.859375 L 61.011719 5.859375 L 61.011719 15.636719 L 64.875 15.636719 L 73.542969 7.789062 "/>
</g>
</svg>
