<?xml version="1.0" encoding="UTF-8" standalone="no"?>
<svg
   xmlns:dc="http://purl.org/dc/elements/1.1/"
   xmlns:cc="http://creativecommons.org/ns#"
   xmlns:rdf="http://www.w3.org/1999/02/22-rdf-syntax-ns#"
   xmlns:svg="http://www.w3.org/2000/svg"
   xmlns="http://www.w3.org/2000/svg"
   xmlns:sodipodi="http://sodipodi.sourceforge.net/DTD/sodipodi-0.dtd"
   xmlns:inkscape="http://www.inkscape.org/namespaces/inkscape"
   width="300"
   height="124.89139"
   viewBox="0 0 300.00001 124.89139"
   class="pbs-logotype-white"
   aria-labelledby="pbs-logotype-white__title"
   version="1.1"
   id="svg13"
   sodipodi:docname="PBS logo.svg"
   inkscape:version="0.92.4 (5da689c313, 2019-01-14)">
  <metadata
     id="metadata19">
    <rdf:RDF>
      <cc:Work
         rdf:about="">
        <dc:format>image/svg+xml</dc:format>
        <dc:type
           rdf:resource="http://purl.org/dc/dcmitype/StillImage" />
        <dc:title>PBS</dc:title>
      </cc:Work>
    </rdf:RDF>
  </metadata>
  <defs
     id="defs17" />
  <sodipodi:namedview
     pagecolor="#ffffff"
     bordercolor="#666666"
     borderopacity="1"
     objecttolerance="10"
     gridtolerance="10"
     guidetolerance="10"
     inkscape:pageopacity="0"
     inkscape:pageshadow="2"
     inkscape:window-width="1366"
     inkscape:window-height="705"
     id="namedview15"
     showgrid="false"
     inkscape:pagecheckerboard="true"
     inkscape:zoom="1.7230414"
     inkscape:cx="111.44581"
     inkscape:cy="72"
     inkscape:window-x="-8"
     inkscape:window-y="-8"
     inkscape:window-maximized="1"
     inkscape:current-layer="svg13" />
  <title
     id="pbs-logotype-white__title">PBS</title>
  <path
     style="fill:#ffffff;fill-opacity:1;fill-rule:evenodd;stroke-width:0.86730134"
     d="m 124.89139,62.445695 c 0,34.487825 -27.957891,62.445665 -62.445695,62.445665 C 27.957891,124.89136 0,96.93352 0,62.445695 0,27.957866 27.957891,2.7e-5 62.445695,2.7e-5 c 34.487804,0 62.445695,27.957839 62.445695,62.445668"
     id="path828"
     inkscape:connector-curvature="0"
     sodipodi:nodetypes="csssc" />
  <path
     id="circle_1_"
     d="m 124.89139,62.445695 a 62.445695,62.445695 0 1 1 -124.89139,0 62.445695,62.445695 0 0 1 124.89139,0 M 84.561879,59.757061 66.348551,24.978278 H 47.528113 A 31.049387,31.049387 0 0 0 16.305265,56.114395 27.406722,27.406722 0 0 0 36.253195,82.0467 V 99.91311 H 64.353758 V 84.99553 h 3.555936 c 4.596697,0 8.152632,-3.46921 8.152632,-7.718983 V 64.440488 l 6.938411,-1.387682 a 2.1682533,2.1682533 0 0 0 1.561142,-3.295745 z M 60.971283,57.762268 c -3.902856,0 -7.111871,-3.209015 -7.111871,-7.111871 0,-3.902856 3.209015,-7.111871 7.111871,-7.111871 3.902856,0 7.111871,3.209015 7.111871,7.111871 0,3.902856 -3.209015,7.111871 -7.111871,7.111871 z m 47.007727,5.290538 -6.93841,1.387682 v 12.836059 c 0,4.336503 -3.555931,7.718983 -8.152628,7.718983 H 89.332036 V 99.91311 H 77.883659 V 84.99553 h 3.555935 c 4.596697,0 8.152633,-3.46921 8.152633,-7.718983 V 64.440488 l 6.93841,-1.387682 A 2.3417136,2.3417136 0 0 0 98.09178,59.757061 L 79.878452,24.978278 h 11.361647 l 18.213331,34.778783 c 0.78057,1.300952 0,3.035554 -1.47442,3.295745 z"
     style="fill:#2638c4;fill-opacity:1;fill-rule:evenodd;stroke-width:0.86730134"
     inkscape:connector-curvature="0" />
  <path
     d="m 281.35255,55.507284 c -6.85168,-3.555935 -12.31568,-6.41803 -12.31568,-11.882028 0,-3.902856 3.29575,-6.24457 8.9332,-6.24457 6.59149,0 12.48914,2.168254 16.99911,4.856888 V 28.100562 a 46.487351,46.487351 0 0 0 -16.99911,-3.729395 c -16.47872,0 -23.85078,9.800505 -23.85078,20.468311 0,12.489139 8.41282,18.473518 17.60621,23.330405 9.10667,4.856888 12.57587,6.938411 12.57587,12.142219 0,4.423238 -3.81612,6.938408 -10.23415,6.938408 A 30.355546,30.355546 0 0 1 254.7264,79.878451 V 94.88276 a 38.247988,38.247988 0 0 0 19.16736,5.89765 c 15.95834,0 26.10577,-8.32609 26.10577,-21.76926 0.0867,-14.050281 -11.7953,-19.94793 -18.64698,-23.503866 z M 159.40998,24.978278 H 139.63551 V 99.91311 h 14.74413 V 76.062325 h 2.94882 c 18.47352,0 29.9219,-9.800504 29.9219,-25.585389 0.0867,-15.958344 -10.32089,-25.498658 -27.84038,-25.498658 z m -5.03034,12.489139 h 4.3365 c 8.67302,0 14.22374,5.030347 14.22374,12.749329 0,8.412823 -5.11707,13.18298 -14.13701,13.18298 h -4.42323 z M 234.43155,59.5836 c 5.03035,-3.469205 7.45879,-8.586283 7.45879,-15.437963 0,-11.795298 -8.67301,-19.167359 -22.7233,-19.167359 H 196.27029 V 99.91311 h 23.85079 c 18.30005,0 26.62615,-11.7953 26.62615,-22.723293 A 17.346026,17.346026 0 0 0 234.43155,59.5836 Z m -16.392,-21.942723 c 5.81092,0 9.54032,3.555935 9.54032,9.193394 0,5.637458 -4.07632,9.280124 -10.32089,9.280124 h -6.24457 V 37.727607 h 7.02514 z M 211.01441,87.42397 V 67.822963 h 9.36686 c 7.45879,0 11.88202,3.642665 11.88202,9.713775 0,6.504762 -4.42323,9.800502 -13.26971,9.800502 h -7.97917 z"
     id="pbstype_1_"
     style="fill:#2638c4;fill-opacity:1;stroke-width:0.86730134"
     inkscape:connector-curvature="0" />
</svg>
